<?xml version="1.0" encoding="UTF-8"?>
<svg id="Capa_1" data-name="Capa 1" xmlns="http://www.w3.org/2000/svg" viewBox="0 0 805.05 444.18">
  <defs>
    <style>
      .cls-1 {
      opacity: .5;
      fill: none;
      stroke: #b2b2b2;
      stroke-miterlimit: 10;
      }
    </style>
  </defs>
  <path class="cls-1" d="m197.53,424.75c-24.4-11.75-44.03-29.1-58.37-51.58-3.48-5.45-6.62-11.22-9.34-17.13-4.57-9.92-8.05-20.5-10.38-31.43,7.3,10.95,16.92,20.39,28.41,27.61,15.01,9.43,32.34,14.41,50.11,14.41s35.1-4.98,50.11-14.41c11.37-7.15,20.9-16.46,28.17-27.26-2.38,10.77-5.89,21.19-10.46,30.95-2.1,4.5-4.46,8.93-7.01,13.16-14.73,24.47-35.33,43.18-61.24,55.66Z"/>
  <path class="cls-1" d="m197.97,443.68c-16.39,0-31.97-1.29-46.32-3.84l-.51-.09c-13.85-2.46-26.87-6.17-38.72-11.01-28.64-11.7-51.3-30.4-67.35-55.57-15.17-23.8-23.18-51.99-23.18-81.52v-90.31c3.66,9.24,8.17,18.1,13.5,26.47,16.69,26.16,39.93,45.84,69.12,58.53v5.31c0,24.09,5.15,48.01,14.9,69.18,2.93,6.38,6.33,12.6,10.09,18.51,16.02,25.11,38.1,44.27,65.65,56.96,2.29,1.07,4.65,2.09,7.03,3.06,3.43,1.4,6.95,2.72,10.56,3.94-4.84.24-9.76.37-14.76.37Z"/>
  <path class="cls-1" d="m360.63,275.97c2.78,13.58,6.72,26.5,11.63,38.7-2.9,19.47-9.47,37.96-19.38,54.41-16.25,26.99-39.59,46.97-69.39,59.35-11.86,4.91-24.89,8.7-38.76,11.25-11.86-2.15-23.08-5.2-33.51-9.1,23.92-13.29,43.18-31.96,57.39-55.56,2.76-4.59,5.31-9.36,7.58-14.21,9.96-21.33,15.25-45.48,15.25-69.85v-4.97c26.27-11.6,47.75-28.85,63.97-51.42.55,11.91,1.87,23.4,3.85,34.51.4,2.33.86,4.62,1.38,6.89Z"/>
  <path class="cls-1" d="m104.5,273.74c-24.92-11.79-44.89-29.29-59.44-52.09-15.17-23.8-23.18-51.98-23.18-81.51v-53.26h-10.89c-5.79,0-10.48-4.69-10.48-10.48V1.06h104v272.68Z"/>
  <path class="cls-1" d="m374.06,1.06v123.23c-7.01,16.37-12.2,34.05-15.36,52.94-1.95,11.63-3.13,23.72-3.47,36.26-.75,1.38-1.55,2.73-2.35,4.08-14.76,24.52-35.4,43.27-61.44,55.76V15.59c0-8.01,6.52-14.53,14.53-14.53h68.1Z"/>
  <g>
    <path class="cls-1" d="m483.31,123.71c26.17-58.77,77.14-99.92,143.54-115.88,3.95-.96,8.12-1.86,12.4-2.66,1.88-.35,3.78-.68,5.68-.99,23.89,3.47,45.69,9.54,64.8,18.03,16.78,7.48,31.92,17.03,45.05,28.43l-59.09,64.47c-4-3.88-8.04-7.38-12.24-10.6-9.43-7.28-19.37-12.93-30.39-17.26-2.51-1.01-5.1-1.94-7.67-2.74-15.82-5.16-33.65-7.68-54.44-7.68-33.9,0-64.47,10.02-88.4,28.99-7.34,5.82-14.06,12.45-20.06,19.73.27-.61.53-1.22.8-1.82Z"/>
    <path class="cls-1" d="m590.95,442.72c-30.84,0-60.02-4.71-86.75-13.99-53.78-18.7-94.68-54.63-118.29-103.89-7.49-15.54-13.14-32.37-16.8-50.03-.49-2.26-.94-4.49-1.34-6.74-2.67-14.93-4.03-30.56-4.03-46.47,0-3.34.06-6.68.18-9.99,1.87,5.91,3.96,11.71,6.27,17.37,1.55,3.79,3.14,7.38,4.86,10.98,2,4.35,4.26,8.72,6.68,12.93,16.97,30.46,40.67,55.58,70.41,74.59,10.22,6.52,21.14,12.3,32.46,17.15l8,3.43v-.18c22.33,8.64,46.46,14.15,71.87,16.37,8.5,1.4,17.4,2.11,26.48,2.11s18.98-.6,28.13-1.79c9.29-1.21,18.46-3.04,27.25-5.45,9.5-2.62,18.53-5.89,26.96-9.75v85.73c-7.94,1.54-16.08,2.85-24.29,3.92h-.01s-3.11.37-3.11.37c-17.62,2.19-36.1,3.31-54.93,3.31Z"/>
    <path class="cls-1" d="m684.78,285.98s-45,.49-45,.49c-1.51,0-2.73-.38-3.49-1.04-.55-.48-.87-1.12-.96-1.95,1.09-4.25,10.46-32.52,67.19-32.52,18.24,0,33.24,2.1,33.38,2.13l17.43,2.48-12.61-12.28s-5.37-5.23-9.98-9.81c19.17-3.86,41.12-14.01,56.42-28.16v74.76c0,3.34-2.54,6.06-5.66,6.06h-13.9v116.68c-25.72,13.23-53.55,23.28-82.83,29.89v-146.73Z"/>
    <path class="cls-1" d="m507.09,340.91c-6.12-2.04-12.12-4.32-17.96-6.83-10.79-4.62-21.15-10.09-30.81-16.27-28.13-17.99-50.53-41.73-66.6-70.56-2.32-4.06-4.42-8.14-6.27-12.17-1.63-3.42-3.13-6.81-4.62-10.44-6.09-14.96-10.61-30.91-13.42-47.42,4.47-26.1,12.97-50.24,25.28-71.77l.31-.54c.09-.17.18-.33.29-.49l.19-.3C428.01,44.68,489.19,8.26,565.71,1.58c8.06-.73,16.3-1.08,25.24-1.08,6.14,0,12.12.12,17.86.36-62.45,19.16-110.41,60.68-135.98,118.18-7.58,16.98-13.14,35.27-16.51,54.36-.23,1.28-.47,2.59-.67,3.91-.68,4.04-1.27,8.3-1.74,12.57-1.16,10.22-1.75,20.9-1.75,31.73s.59,21.47,1.75,31.71l.06.43c1.28,6.73,2.86,13.05,4.7,18.8,9.14,28.82,25.92,52.16,48.42,68.37Z"/>
  </g>
  <path class="cls-1" d="m804.54,132.45c0-1.33-1.62-2.05-2.09-.97-15.56,35.55-67.44,38.77-97.32,50.19-31.47,12.03-61.99,33.19-75.8,64.05-1.6,1.38-3.55,3.7-2.97.59,12.21-32.45,41.72-57.18,72.19-67.66,6.72-2.43,20.94-6.6,29.57-8.84,20.29-5.24,36.54-11.28,36.54-11.28,0,0-17.38,3.85-47.14,10.53-24.09,5.41-47.97,14.34-66.63,31.35-13.99,12.75-24.41,30.71-29.02,49.88-.14.43-.21.87-.32,1.3-1.03,4.91-2.12,13.71-1.87,18.61,0,.02,0,.26.03.37.03.08.06.14.11.19,1.13,8.09,3.36,1.5,3.36,1.5,0,0,.49-1.13,1.21-2.94,20.83-32.61,49.51-38.56,87.97-31.67.7.13,1.17-1.1.61-1.65-5.2-5.14-12.98-7.72-19.06-9.75,26.13-6,50.04-8.62,69.49-19.9,24.34-14.11,41.15-44,41.14-73.23,0-.22,0-.45,0-.67Z"/>
</svg>